<svg width="4499" height="1050" viewBox="0 0 4499 1050" fill="none" xmlns="http://www.w3.org/2000/svg">
<path d="M524.838 1049.67C234.981 1049.67 0 814.69 0 524.838C0 234.986 234.981 0 524.838 0C814.695 0 1049.67 234.981 1049.67 524.835C1049.67 814.689 814.693 1049.67 524.838 1049.67" fill="#5A8BC9"/>
<path d="M586.649 527.83V738.369C572.185 738.37 557.863 735.521 544.5 729.987C531.138 724.452 518.996 716.339 508.769 706.112C498.541 695.885 490.429 683.743 484.894 670.38C479.359 657.018 476.511 642.696 476.512 628.232V524.838C476.235 499.573 467.161 475.194 450.85 455.896C434.539 436.599 412.013 423.591 387.146 419.11C362.28 414.628 336.629 418.955 314.608 431.344C292.587 443.733 275.573 463.411 266.494 486.99C257.415 510.57 256.839 536.576 264.864 560.535C272.89 584.493 289.015 604.905 310.466 618.258C331.916 631.611 357.35 637.069 382.391 633.694C407.431 630.318 430.512 618.321 447.662 599.765V731.252C422.288 740.872 395.384 745.82 368.248 745.859C247.008 746.476 148.227 648.692 147.609 527.459C146.991 406.226 244.775 307.438 366.009 306.821C486.953 306.205 585.609 403.521 586.648 524.466L586.649 527.83Z" fill="white"/>
<path d="M769.834 599.381C760.08 610.457 748.24 619.504 734.99 626.005C721.74 632.505 707.339 636.332 692.61 637.267C677.88 638.202 663.111 636.226 649.146 631.453C635.18 626.68 622.291 619.203 611.215 609.449C610.125 608.489 609.053 607.509 607.998 606.508V728.998C632.784 738.358 659.052 743.182 685.546 743.242C730.253 743.226 773.864 729.396 810.409 703.644C846.955 677.892 874.651 641.477 889.707 599.381H769.834ZM685.546 308.313C633.696 308.253 583.558 326.871 544.314 360.758C568.929 388.618 586.979 421.646 597.133 457.409C607.315 444.317 620.268 433.64 635.063 426.145C649.858 418.649 666.128 414.521 682.707 414.055C699.286 413.589 715.763 416.798 730.955 423.452C746.147 430.105 759.679 440.038 770.58 452.538H889.707C874.76 410.343 847.102 373.817 810.541 347.989C773.979 322.161 730.31 308.299 685.546 308.313Z" fill="white"/>
<path d="M1635.35 411.673V606.183C1635.35 627.614 1629.79 645.237 1618.68 659.052C1607.45 672.801 1590.98 679.775 1569.04 679.775C1532.75 679.775 1514.55 659.557 1514.55 619.324V411.673H1429.13V632.466C1429.13 650.359 1431.86 666.633 1437.42 681.09C1442.49 694.896 1450.18 707.595 1460.07 718.49C1469.66 728.984 1481.42 737.263 1494.54 742.751C1508.56 748.581 1523.63 751.505 1538.82 751.345C1583.9 751.345 1617.39 733.385 1639.3 697.464V750.751H1720.07V411.673H1635.35Z" fill="#262626"/>
<path d="M2561.16 674.115C2550.44 680.483 2538.11 683.715 2524.06 683.715C2503.03 683.715 2486.15 676.436 2473.21 661.981C2460.27 647.526 2453.2 628.116 2451.88 603.552H2674.48C2674.48 539.158 2661.68 491.006 2636.07 459.095C2610.39 427.15 2572.62 411.178 2522.75 411.179C2497.77 411.179 2475.74 415.02 2456.43 422.601C2437.22 430.285 2420.85 441.301 2407.5 455.759C2394.16 470.217 2383.95 487.5 2376.97 507.718C2370 527.836 2366.5 550.38 2366.46 575.349C2366.46 692.611 2420.31 751.278 2528 751.349C2562.58 751.349 2592.36 742.352 2617.37 724.357C2642.33 706.466 2659.82 680.857 2669.83 647.531H2581.88C2578.85 658.951 2571.87 667.846 2561.16 674.115ZM2475.84 497.515C2488.28 484.981 2503.04 478.815 2520.12 478.815C2528.42 478.803 2536.67 480.24 2544.48 483.06C2552.35 485.878 2559.53 490.36 2565.51 496.202C2571.91 502.558 2576.93 510.163 2580.26 518.543C2584.13 528.478 2586.22 539.018 2586.43 549.678H2454.51C2456.23 527.332 2463.34 509.943 2475.84 497.51V497.515Z" fill="#262626"/>
<path d="M2988.67 473.136C2983.62 460.433 2976.02 448.905 2966.32 439.271C2956.73 429.993 2945.2 422.951 2932.56 418.649C2918.84 413.94 2904.41 411.615 2889.9 411.775C2863.62 411.775 2842.09 416.424 2825.51 425.826C2808.5 435.243 2794.59 449.4 2785.48 466.576V411.266H2704V751.346H2789.42V557.152C2789.42 507.718 2811.46 483.952 2855.73 483.952C2875.85 483.952 2890.1 488.4 2898.39 497.094C2906.68 505.894 2910.83 522.67 2910.83 547.64V751.346H2996.85V519.434C2996.85 501.946 2994.12 486.479 2988.67 473.136Z" fill="#262626"/>
<path d="M3216.31 529.487C3213.88 559.308 3224.18 637.359 3204.18 660.195C3190.23 682.095 3141.96 682.111 3128.67 659.895C3107.63 633.985 3120.65 504.375 3117.24 471.552H3173.45V411.202H3117.24V308.857H3033.14C3036.2 346.563 3026.19 641.008 3040.32 670.719C3070.8 778.47 3257.51 778.086 3288.29 670.405C3301.02 639.097 3294.24 563.149 3295.87 529.487H3216.31Z" fill="#262626"/>
<path d="M3521.1 665.925C3509.27 675.125 3495.02 679.776 3478.44 679.776C3461.76 679.776 3447.07 671.217 3434.36 654.099C3421.73 637.014 3415.39 610.765 3415.36 575.351C3415.36 557.862 3417.08 543.001 3420.61 530.972C3424.15 518.943 3428.8 509.339 3434.77 502.06C3440.17 495.209 3447.28 489.908 3455.39 486.695C3463.58 483.525 3472.29 481.947 3481.07 482.044C3497.24 482.044 3510.89 486.796 3522.11 496.197C3533.23 505.597 3539.9 518.639 3542.13 535.217H3628.15C3626.84 516.417 3622.46 499.367 3615.01 484.066C3607.73 468.917 3597.33 455.481 3584.48 444.641C3571.15 433.462 3555.76 424.982 3539.19 419.673C3521.81 414.011 3502.7 411.182 3481.67 411.182C3458.93 411.182 3438.24 414.449 3419.6 420.982C3401.64 427.164 3385.35 437.404 3371.99 450.905C3358.85 464.248 3348.74 481.434 3341.46 502.459C3334.29 523.386 3330.68 548.321 3330.65 577.265C3330.65 606.176 3334.25 631.449 3341.46 653.082C3348.74 674.816 3358.85 693.012 3371.99 707.669C3384.86 722.137 3400.97 733.36 3418.99 740.422C3437.19 747.701 3457.21 751.341 3479.04 751.34C3497.73 751.479 3516.31 748.366 3533.93 742.14C3550.31 736.26 3565.53 727.572 3578.91 716.464C3592.09 705.493 3603.09 692.155 3611.36 677.139C3620.11 661.306 3625.57 643.876 3627.44 625.887H3541.41C3539.7 643.381 3532.93 656.727 3521.1 665.925Z" fill="#262626"/>
<path d="M3964.08 510.959C3956.39 489.932 3945.38 472.141 3931.22 457.483C3916.63 442.587 3899.06 430.943 3879.66 423.314C3859.55 415.228 3836.7 411.184 3811.33 411.184C3785.55 411.184 3762.4 415.228 3742.09 423.314C3722.42 430.965 3704.6 442.716 3689.82 457.786C3675.47 472.647 3664.34 490.64 3656.66 511.667C3649.08 532.593 3645.24 555.843 3645.24 581.215C3645.24 606.185 3648.88 629.132 3656.36 650.159C3663.84 671.186 3674.66 689.179 3688.91 704.04C3703.06 718.899 3720.55 730.525 3741.07 738.814C3761.69 747.103 3785.05 751.349 3811.33 751.349C3836.3 751.349 3858.98 747.271 3879.36 739.117C3899.68 731.031 3916.96 719.607 3931.22 704.645C3945.74 689.271 3956.92 671.066 3964.07 651.169C3971.66 630.346 3975.5 607.096 3975.5 581.215C3975.49 555.436 3971.69 532.018 3964.08 510.959ZM3811.33 679.776C3759.26 679.776 3733.22 646.921 3733.18 581.212C3733.18 516.012 3759.23 483.394 3811.33 483.358C3863.49 483.358 3889.54 515.976 3889.47 581.212C3889.47 646.921 3863.42 679.775 3811.33 679.776Z" fill="#262626"/>
<path d="M1393.03 484.369C1388.18 468.398 1380.4 455.054 1369.68 444.338C1358.96 433.622 1344.71 425.338 1327.02 419.673C1309.23 414.012 1287.66 411.181 1262.32 411.182C1236.44 411.182 1214.61 413.911 1196.61 419.369C1178.72 424.828 1164.16 432.579 1152.94 442.62C1141.97 452.481 1133.63 464.919 1128.68 478.811C1123.49 493.565 1120.72 509.065 1120.49 524.705H1199.95C1202.07 510.351 1207.43 498.726 1216.02 489.931C1224.51 481.238 1238.66 476.789 1258.38 476.789C1274.96 476.789 1288.2 479.721 1298.1 485.689C1307.91 491.552 1312.86 499.842 1312.86 510.355C1312.86 521.676 1309.12 529.865 1301.74 534.919C1294.26 539.973 1279.81 544.017 1258.38 547.05C1236.95 550.184 1217.13 553.519 1198.94 557.26C1180.74 561.001 1165.07 566.76 1152.04 574.647C1138.94 582.464 1128.24 593.723 1121.1 607.198C1113.72 620.945 1110.02 639.445 1109.98 662.698C1109.98 688.981 1118.61 710.311 1135.86 726.688C1153.15 743.064 1180.44 751.353 1217.64 751.353C1239.58 751.353 1258.78 747.916 1275.46 741.143C1292.04 734.369 1305.39 725.271 1315.5 713.848C1316.22 722.575 1317.44 736.06 1319.29 745.719C1319.66 747.432 1320.15 749.117 1320.75 750.76H1400.21V538.56C1400.21 518.437 1397.78 500.342 1393.03 484.369ZM1314.18 619.929C1314.22 629.388 1312.08 638.729 1307.91 647.224C1303.86 655.607 1298.31 663.178 1291.54 669.565C1284.5 676.112 1276.26 681.228 1267.28 684.627C1257.52 688.442 1247.13 690.364 1236.65 690.29C1209.15 690.29 1195.3 678.158 1195.3 654.099C1195.3 640.147 1199.95 629.433 1209.15 621.951C1218.35 614.469 1235.13 608.406 1259.7 603.551C1275.47 600.518 1287.49 597.687 1295.78 595.06C1304.08 592.43 1310.44 588.893 1314.89 584.547L1314.18 619.929Z" fill="#262626"/>
<path d="M3216.31 411.059H3295.87V471.409H3216.31V411.059Z" fill="#5A8BC9"/>
<path opacity="0.5" d="M4227.74 447.106L4230.41 446.406V445.627C4229.52 446.118 4228.62 446.612 4227.74 447.106Z" fill="#262626"/>
<path opacity="0.5" d="M4238.11 723.245V724.745H4238.12L4238.11 723.245Z" fill="#262626"/>
<path opacity="0.5" d="M4227.74 447.106L4230.41 446.406V445.627C4229.52 446.118 4228.62 446.612 4227.74 447.106Z" fill="#262626"/>
<path opacity="0.5" d="M4227.74 447.106L4230.41 446.406V445.627C4229.52 446.118 4228.62 446.612 4227.74 447.106Z" fill="#262626"/>
<path d="M4207.16 309.031V462.531C4184.1 430.174 4153.5 414.029 4115.35 414.098C4097.82 414.098 4081.96 417.035 4067.77 422.909C4067.45 423.041 4067.13 423.173 4066.81 423.324C4065.01 424.06 4063.24 424.871 4061.51 425.724C4045.81 433.469 4032.14 444.784 4021.61 458.761C4010.66 472.987 4002.44 489.836 3996.72 509.401C3991.09 528.873 3988.28 550.376 3988.28 573.91C3988.28 599.853 3991.58 634.192 3998.36 654.719C4005.03 675.266 4014.23 692.668 4025.96 706.925C4037.37 720.893 4051.81 732.086 4068.18 739.66C4080.33 745.247 4093.31 748.791 4106.61 750.15C4106.99 750.207 4107.39 750.244 4107.76 750.282C4112.57 750.77 4117.39 751.01 4122.22 750.999C4160.86 750.999 4189.52 724.699 4208.4 693.981L4208.48 698.453L4209.08 750.753H4287.72V436.065C4287.65 436.093 4287.58 436.124 4287.51 436.159C4282.38 438.538 4277.42 441.255 4272.66 444.291C4272.62 444.31 4272.6 444.329 4272.57 444.348C4266.05 448.52 4259.94 453.303 4254.33 458.631C4230.25 481.744 4222.41 507.271 4218.8 517.592C4217.73 520.649 4214.76 533.327 4214.76 533.327C4211.65 550.22 4210.17 567.375 4210.35 584.552C4210.35 610.985 4203.76 643.4 4190.5 659.758C4177.48 675.946 4161.25 684.116 4141.8 684.267H4141.1C4120.57 684.267 4103.79 675.55 4090.74 658.117C4077.77 640.776 4071.28 607.211 4071.28 579.514C4071.28 526.497 4087.55 495.542 4120.09 486.649C4127.17 484.773 4134.47 483.859 4141.79 483.932C4164.49 483.932 4187.37 495.532 4198.79 512.082C4199.24 511.176 4200.19 509.629 4200.66 508.761L4206.53 497.78L4207.7 495.818C4212.7 487.218 4217.13 480.252 4222.92 473.479C4245.92 446.593 4268.41 432.367 4284.73 426.348C4284.81 426.305 4284.89 426.274 4284.98 426.254C4285.94 425.914 4286.86 425.594 4287.73 425.292V309.031H4207.16Z" fill="#262626"/>
<path d="M4462.34 467.159C4451.04 452.931 4436.42 441.686 4419.78 434.405C4419.76 434.386 4419.76 434.367 4419.74 434.386C4401.72 426.405 4380.69 422.418 4356.65 422.424C4334.67 422.424 4315.04 425.588 4297.76 431.915C4296.67 432.292 4295.57 432.707 4294.5 433.141C4293.9 433.367 4293.29 433.613 4292.7 433.858C4292.12 434.103 4291.53 434.349 4290.95 434.613C4290.12 434.971 4289.31 435.33 4288.5 435.707C4288.23 435.82 4287.97 435.952 4287.72 436.066C4287.65 436.094 4287.58 436.125 4287.51 436.16C4282.39 438.54 4277.43 441.256 4272.67 444.292C4272.63 444.311 4272.61 444.33 4272.57 444.349C4266.05 448.52 4259.94 453.302 4254.33 458.631C4252.48 460.367 4250.69 462.178 4248.95 464.046C4236.5 477.536 4227.06 493.668 4220.46 512.554C4215.73 526.406 4212.76 540.794 4211.59 555.383C4211.01 561.948 4210.72 568.715 4210.72 575.683C4210.72 585.475 4211.13 594.833 4211.93 603.758C4217.55 666.077 4242.8 718.038 4287.72 737.585V551.724C4289.32 530.856 4301.14 514.63 4312.76 503.024C4324.46 491.307 4338.23 485.553 4354.17 485.553C4361.72 485.547 4369.21 486.829 4376.32 489.345L4376.83 489.515C4384.18 492.151 4390.87 496.34 4396.45 501.798C4402.43 507.733 4407.12 514.828 4410.25 522.646C4413.74 531.046 4415.62 540.665 4416.09 551.721H4302.79V602.021H4498.19C4498.19 541.89 4486.24 496.936 4462.34 467.159ZM4411.76 654.078C4408.93 664.738 4402.49 673.04 4392.5 678.888C4384.79 683.398 4376.23 686.259 4367.36 687.288H4367.35C4364.2 687.67 4361.03 687.859 4357.85 687.854C4338.23 687.854 4322.38 681.093 4310.31 667.571C4308.68 665.764 4307.16 663.868 4305.74 661.892C4304.71 660.44 4303.7 658.949 4302.8 657.42V742.682H4301.38C4318.89 748.229 4338.95 751.003 4361.55 751.003C4372.65 751.05 4383.72 749.956 4394.59 747.739C4412.72 744.075 4429.86 736.595 4444.87 725.796C4468.19 709.096 4484.51 685.118 4493.94 654.081L4411.76 654.078Z" fill="#262626"/>
<path d="M1932.82 528.63H2012.58V620.905C2012.65 637.569 2010.09 654.14 2004.99 670.005C2000.08 685.358 1992 699.507 1981.27 711.534C1970.49 723.618 1956.87 733.176 1940.41 740.207C1923.92 747.228 1904.26 750.742 1881.42 750.749C1857.7 750.749 1837.48 747.235 1820.77 740.207C1804.07 733.179 1790.33 723.729 1779.57 711.858C1768.77 699.934 1760.78 685.744 1756.17 670.329C1751.28 654.085 1748.84 637.202 1748.94 620.237V309.229H1833.3V417.893H2012.58V478.538H1833.29V611.678C1833.29 632.335 1837.14 648.265 1844.83 659.467C1852.52 670.669 1865.15 676.269 1882.72 676.267C1899.86 676.267 1912.5 670.775 1920.63 659.79C1928.76 648.805 1932.83 633.207 1932.82 612.995L1932.82 528.63Z" fill="#262626"/>
<path d="M2255.13 752.19V551.15C2255.13 526.545 2250.84 509.736 2242.26 500.723C2233.7 491.733 2219.53 487.233 2199.76 487.223C2189.96 487.059 2180.25 489.203 2171.42 493.483C2163.21 497.556 2156 503.41 2150.33 510.62C2144.5 518.084 2140.14 526.584 2137.47 535.671C2134.55 545.619 2133.11 555.944 2133.19 566.313V752.194H2047.5V309.252H2133.19V470.081C2136.61 462.549 2141.42 455.727 2147.36 449.971C2153.86 443.506 2161.3 438.063 2169.43 433.828C2178.22 429.263 2187.51 425.725 2197.12 423.286C2207.45 420.619 2218.09 419.289 2228.76 419.329C2262.16 419.329 2289.28 428.447 2310.15 446.684C2331.01 464.921 2341.45 490.297 2341.46 522.812V752.19H2255.13Z" fill="#262626"/>
</svg>
