<svg width="2520" height="588" viewBox="0 0 2520 588" fill="none" xmlns="http://www.w3.org/2000/svg">
<g clip-path="url(#clip0_5_126)">
<path d="M293.975 587.815C131.619 587.815 0 456.226 0 293.909C0 131.592 131.619 0 293.975 0C456.331 0 587.946 131.589 587.946 293.908C587.946 456.226 456.329 587.815 293.975 587.815Z" fill="#5A8BC9"/>
<path d="M328.596 295.585V413.487C320.495 413.487 312.473 411.892 304.988 408.793C297.503 405.693 290.702 401.15 284.974 395.423C279.245 389.696 274.701 382.896 271.601 375.413C268.501 367.93 266.905 359.91 266.906 351.81V293.909C266.751 279.761 261.668 266.109 252.532 255.302C243.396 244.495 230.779 237.211 216.85 234.702C202.922 232.192 188.554 234.615 176.22 241.553C163.885 248.49 154.355 259.51 149.27 272.714C144.184 285.919 143.862 300.483 148.357 313.9C152.852 327.316 161.884 338.747 173.9 346.224C185.914 353.702 200.16 356.759 214.187 354.869C228.212 352.978 241.14 346.26 250.746 335.868V409.501C236.534 414.888 221.464 417.659 206.265 417.681C138.355 418.027 83.0255 363.267 82.6794 295.377C82.3332 227.487 137.104 172.165 205.011 171.82C272.754 171.475 328.014 225.972 328.596 293.701L328.596 295.585Z" fill="white"/>
<path d="M431.203 335.653C425.739 341.856 419.107 346.922 411.686 350.563C404.264 354.203 396.198 356.346 387.948 356.87C379.697 357.393 371.425 356.287 363.602 353.614C355.78 350.941 348.56 346.754 342.356 341.291C341.746 340.754 341.145 340.205 340.554 339.644V408.239C354.438 413.48 369.151 416.182 383.991 416.215C409.033 416.207 433.46 408.462 453.93 394.041C474.4 379.619 489.913 359.227 498.347 335.653H431.203ZM383.991 172.655C354.949 172.622 326.865 183.048 304.884 202.024C318.671 217.626 328.781 236.122 334.469 256.149C340.172 248.817 347.427 242.838 355.714 238.641C364.001 234.443 373.115 232.132 382.401 231.871C391.687 231.61 400.916 233.407 409.426 237.133C417.935 240.859 425.515 246.421 431.621 253.421H498.347C489.974 229.792 474.483 209.337 454.004 194.874C433.525 180.41 409.064 172.647 383.991 172.655Z" fill="white"/>
<path d="M916 230.537V339.462C916 351.464 912.885 361.333 906.662 369.069C900.372 376.769 891.147 380.674 878.858 380.674C858.531 380.674 848.337 369.352 848.337 346.821V230.537H800.491V354.181C800.491 364.201 802.02 373.314 805.134 381.41C807.974 389.142 812.281 396.253 817.821 402.354C823.192 408.231 829.78 412.867 837.128 415.941C844.981 419.205 853.422 420.843 861.931 420.753C887.181 420.753 905.94 410.696 918.212 390.58V420.421H963.453V230.537H916Z" fill="white"/>
<path d="M1434.57 377.504C1428.56 381.07 1421.66 382.88 1413.79 382.88C1402.01 382.88 1392.55 378.804 1385.31 370.709C1378.06 362.615 1374.1 351.745 1373.36 337.989H1498.04C1498.04 301.929 1490.87 274.963 1476.53 257.093C1462.14 239.204 1440.99 230.26 1413.05 230.26C1399.06 230.26 1386.72 232.411 1375.91 236.657C1365.15 240.96 1355.98 247.129 1348.5 255.225C1341.03 263.322 1335.31 273 1331.4 284.322C1327.49 295.588 1325.53 308.213 1325.51 322.195C1325.51 387.862 1355.67 420.716 1415.99 420.755C1435.36 420.755 1452.04 415.717 1466.05 405.64C1480.03 395.621 1489.83 381.28 1495.44 362.617H1446.17C1444.48 369.013 1440.57 373.994 1434.57 377.504ZM1386.78 278.608C1393.75 271.589 1402.01 268.136 1411.58 268.136C1416.23 268.13 1420.85 268.934 1425.23 270.514C1429.63 272.092 1433.66 274.602 1437 277.873C1440.59 281.432 1443.4 285.691 1445.27 290.384C1447.43 295.948 1448.61 301.85 1448.72 307.82H1374.83C1375.79 295.306 1379.78 285.568 1386.78 278.606V278.608Z" fill="white"/>
<path d="M1674.03 264.956C1671.2 257.842 1666.94 251.387 1661.51 245.992C1656.14 240.796 1649.68 236.853 1642.6 234.443C1634.91 231.806 1626.83 230.504 1618.7 230.594C1603.98 230.594 1591.92 233.197 1582.64 238.463C1573.11 243.736 1565.32 251.664 1560.22 261.283V230.309H1514.58V420.754H1562.42V312.005C1562.42 284.322 1574.77 271.013 1599.56 271.013C1610.83 271.013 1618.82 273.504 1623.46 278.373C1628.1 283.301 1630.43 292.695 1630.43 306.678V420.754H1678.61V290.883C1678.61 281.09 1677.08 272.428 1674.03 264.956Z" fill="white"/>
<path d="M1801.53 296.513C1800.17 313.213 1805.94 356.921 1794.74 369.709C1786.93 381.973 1759.89 381.982 1752.44 369.541C1740.66 355.032 1747.95 282.45 1746.04 264.069H1777.53V230.273H1746.04V172.96H1698.94C1700.65 194.075 1695.04 358.965 1702.96 375.603C1720.03 435.943 1824.61 435.728 1841.85 375.427C1848.98 357.894 1845.18 315.363 1846.1 296.513H1801.53Z" fill="white"/>
<path d="M1972.25 372.918C1965.63 378.07 1957.65 380.675 1948.36 380.675C1939.02 380.675 1930.79 375.882 1923.67 366.295C1916.59 356.728 1913.04 342.028 1913.03 322.197C1913.03 312.403 1913.99 304.081 1915.97 297.344C1917.95 290.608 1920.55 285.23 1923.9 281.154C1926.92 277.317 1930.91 274.349 1935.45 272.549C1940.04 270.774 1944.91 269.89 1949.83 269.945C1958.89 269.945 1966.54 272.606 1972.82 277.87C1979.05 283.134 1982.78 290.438 1984.03 299.722H2032.22C2031.48 289.194 2029.03 279.646 2024.86 271.077C2020.78 262.594 2014.95 255.069 2007.75 248.999C2000.29 242.739 1991.67 237.99 1982.39 235.017C1972.65 231.846 1961.95 230.262 1950.17 230.262C1937.43 230.262 1925.84 232.091 1915.4 235.75C1905.34 239.212 1896.22 244.946 1888.73 252.507C1881.37 259.979 1875.71 269.603 1871.63 281.377C1867.62 293.096 1865.6 307.06 1865.58 323.268C1865.58 339.459 1867.59 353.611 1871.63 365.726C1875.71 377.897 1881.37 388.087 1888.73 396.295C1895.94 404.397 1904.97 410.682 1915.06 414.636C1925.25 418.713 1936.47 420.751 1948.7 420.75C1959.16 420.828 1969.57 419.085 1979.44 415.598C1988.62 412.306 1997.14 407.44 2004.63 401.22C2012.02 395.076 2018.18 387.607 2022.81 379.198C2027.71 370.331 2030.77 360.571 2031.82 350.497H1983.63C1982.67 360.293 1978.88 367.767 1972.25 372.918Z" fill="white"/>
<path d="M2220.38 286.137C2216.07 274.362 2209.9 264.399 2201.97 256.191C2193.8 247.849 2183.96 241.328 2173.09 237.056C2161.83 232.528 2149.03 230.263 2134.82 230.263C2120.38 230.263 2107.41 232.528 2096.04 237.056C2085.02 241.34 2075.04 247.921 2066.76 256.36C2058.72 264.682 2052.49 274.758 2048.18 286.534C2043.94 298.252 2041.79 311.272 2041.79 325.48C2041.79 339.464 2043.83 352.314 2048.02 364.089C2052.21 375.864 2058.27 385.94 2066.25 394.262C2074.17 402.583 2083.97 409.094 2095.46 413.736C2107.01 418.378 2120.1 420.755 2134.82 420.755C2148.81 420.755 2161.51 418.472 2172.92 413.906C2184.31 409.377 2193.99 402.98 2201.97 394.601C2210.11 385.992 2216.37 375.797 2220.37 364.655C2224.62 352.994 2226.77 339.974 2226.77 325.48C2226.77 311.044 2224.64 297.93 2220.38 286.137ZM2134.82 380.675C2105.65 380.675 2091.07 362.276 2091.05 325.479C2091.05 288.967 2105.64 270.701 2134.82 270.681C2164.04 270.681 2178.63 288.947 2178.59 325.479C2178.59 362.276 2164 380.674 2134.82 380.675Z" fill="white"/>
<path d="M780.27 271.247C777.554 262.303 773.196 254.83 767.191 248.829C761.187 242.828 753.205 238.189 743.296 235.017C733.332 231.847 721.25 230.261 707.056 230.262C692.56 230.262 680.333 231.79 670.251 234.847C660.23 237.904 652.074 242.244 645.79 247.867C639.645 253.389 634.974 260.355 632.201 268.134C629.294 276.396 627.743 285.076 627.614 293.835H672.121C673.309 285.797 676.311 279.287 681.123 274.361C685.878 269.493 693.804 267.002 704.849 267.002C714.136 267.002 721.552 268.644 727.098 271.986C732.592 275.269 735.365 279.912 735.365 285.799C735.365 292.139 733.27 296.724 729.136 299.555C724.947 302.385 716.853 304.65 704.849 306.348C692.846 308.103 681.744 309.971 671.556 312.066C661.361 314.161 652.584 317.386 645.286 321.802C637.948 326.18 631.955 332.485 627.956 340.031C623.822 347.729 621.749 358.089 621.727 371.111C621.727 385.829 626.561 397.774 636.223 406.945C645.908 416.116 661.193 420.758 682.03 420.758C694.319 420.758 705.073 418.833 714.416 415.04C723.703 411.247 731.181 406.152 736.844 399.755C737.247 404.642 737.93 412.194 738.967 417.603C739.174 418.562 739.448 419.506 739.784 420.426H784.292V301.594C784.292 290.325 782.931 280.192 780.27 271.247ZM736.104 347.16C736.127 352.457 734.928 357.688 732.592 362.445C730.324 367.14 727.215 371.38 723.423 374.956C719.48 378.623 714.864 381.488 709.835 383.391C704.368 385.528 698.548 386.604 692.678 386.562C677.274 386.562 669.517 379.769 669.517 366.295C669.517 358.482 672.121 352.483 677.274 348.293C682.428 344.103 691.826 340.707 705.589 337.989C714.422 336.29 721.155 334.705 725.798 333.234C730.447 331.761 734.009 329.78 736.502 327.346L736.104 347.16Z" fill="white"/>
<path d="M1801.53 230.193H1846.1V263.989H1801.53V230.193Z" fill="#5A8BC9"/>
<path opacity="0.5" d="M2368.06 250.379L2369.56 249.987V249.551C2369.06 249.826 2368.55 250.103 2368.06 250.379Z" fill="white"/>
<path opacity="0.5" d="M2373.87 405.017V405.857H2373.87L2373.87 405.017Z" fill="white"/>
<path opacity="0.5" d="M2368.06 250.379L2369.56 249.987V249.551C2369.06 249.826 2368.55 250.103 2368.06 250.379Z" fill="white"/>
<path opacity="0.5" d="M2368.06 250.379L2369.56 249.987V249.551C2369.06 249.826 2368.55 250.103 2368.06 250.379Z" fill="white"/>
<path d="M2356.53 173.057V259.017C2343.62 240.897 2326.48 231.856 2305.11 231.895C2295.29 231.895 2286.41 233.54 2278.46 236.829C2278.28 236.903 2278.1 236.977 2277.92 237.061C2276.91 237.474 2275.92 237.928 2274.95 238.405C2266.16 242.743 2258.5 249.079 2252.6 256.906C2246.47 264.873 2241.86 274.308 2238.66 285.265C2235.51 296.169 2233.93 308.211 2233.93 321.39C2233.93 335.918 2235.78 355.148 2239.58 366.643C2243.32 378.149 2248.47 387.894 2255.04 395.878C2261.43 403.7 2269.52 409.968 2278.69 414.21C2285.49 417.338 2292.76 419.323 2300.21 420.084C2300.43 420.116 2300.65 420.137 2300.86 420.158C2303.55 420.431 2306.25 420.566 2308.96 420.559C2330.6 420.559 2346.65 405.831 2357.23 388.629L2357.27 391.134L2357.61 420.422H2401.66V244.196C2401.62 244.212 2401.58 244.229 2401.54 244.249C2398.67 245.581 2395.89 247.103 2393.22 248.803C2393.2 248.814 2393.19 248.824 2393.17 248.835C2389.52 251.171 2386.1 253.85 2382.95 256.833C2369.47 269.777 2365.08 284.072 2363.05 289.852C2362.45 291.563 2360.79 298.663 2360.79 298.663C2359.05 308.123 2358.22 317.73 2358.32 327.349C2358.32 342.152 2354.63 360.304 2347.2 369.464C2339.91 378.53 2330.82 383.105 2319.92 383.19H2319.53C2308.03 383.19 2298.63 378.308 2291.32 368.546C2284.06 358.835 2280.42 340.038 2280.42 324.528C2280.42 294.838 2289.54 277.504 2307.76 272.523C2311.73 271.473 2315.82 270.961 2319.92 271.002C2332.63 271.002 2345.45 277.498 2351.85 286.766C2352.1 286.259 2352.63 285.392 2352.89 284.906L2356.18 278.757L2356.84 277.658C2359.64 272.842 2362.12 268.941 2365.36 265.148C2378.24 250.092 2390.84 242.126 2399.98 238.755C2400.03 238.731 2400.07 238.713 2400.12 238.702C2400.66 238.512 2401.18 238.333 2401.66 238.164V173.057H2356.53Z" fill="white"/>
<path d="M2499.47 261.609C2493.14 253.641 2484.95 247.344 2475.63 243.267C2475.62 243.256 2475.62 243.246 2475.6 243.256C2465.51 238.787 2453.73 236.554 2440.27 236.557C2427.95 236.557 2416.96 238.329 2407.28 241.872C2406.67 242.084 2406.05 242.316 2405.45 242.559C2405.12 242.686 2404.78 242.823 2404.45 242.961C2404.12 243.098 2403.79 243.235 2403.47 243.383C2403 243.584 2402.55 243.785 2402.09 243.996C2401.94 244.059 2401.8 244.133 2401.66 244.197C2401.62 244.213 2401.58 244.23 2401.54 244.25C2398.67 245.582 2395.89 247.103 2393.23 248.804C2393.2 248.814 2393.19 248.825 2393.17 248.835C2389.52 251.171 2386.1 253.849 2382.95 256.833C2381.92 257.806 2380.92 258.82 2379.94 259.866C2372.97 267.42 2367.68 276.454 2363.98 287.03C2361.33 294.787 2359.67 302.845 2359.01 311.015C2358.69 314.691 2358.53 318.48 2358.53 322.383C2358.53 327.866 2358.76 333.107 2359.21 338.105C2362.35 373.003 2376.5 402.101 2401.66 413.048V308.965C2402.55 297.279 2409.17 288.193 2415.68 281.693C2422.24 275.132 2429.95 271.91 2438.88 271.91C2443.11 271.906 2447.3 272.624 2451.28 274.033L2451.57 274.128C2455.69 275.605 2459.43 277.95 2462.56 281.007C2465.91 284.331 2468.54 288.304 2470.29 292.682C2472.24 297.386 2473.3 302.772 2473.56 308.964H2410.1V337.132H2519.55C2519.55 303.458 2512.85 278.284 2499.47 261.609ZM2471.13 366.284C2469.55 372.253 2465.94 376.902 2460.35 380.177C2456.03 382.703 2451.23 384.305 2446.27 384.881H2446.26C2444.5 385.095 2442.72 385.201 2440.94 385.198C2429.95 385.198 2421.07 381.412 2414.31 373.84C2413.4 372.828 2412.55 371.766 2411.75 370.66C2411.17 369.846 2410.61 369.011 2410.1 368.155V415.902H2409.31C2419.12 419.008 2430.35 420.562 2443.01 420.562C2449.23 420.588 2455.43 419.975 2461.52 418.734C2471.67 416.682 2481.27 412.493 2489.68 406.446C2502.74 397.094 2511.88 383.666 2517.17 366.285L2471.13 366.284Z" fill="white"/>
<path d="M1082.62 296.033H1127.3V347.707C1127.33 357.039 1125.9 366.318 1123.04 375.203C1120.29 383.8 1115.77 391.724 1109.76 398.459C1103.72 405.226 1096.09 410.579 1086.87 414.516C1077.63 418.448 1066.62 420.416 1053.83 420.419C1040.54 420.419 1029.22 418.452 1019.86 414.516C1010.5 410.58 1002.81 405.288 996.781 398.64C990.731 391.963 986.256 384.017 983.674 375.384C980.935 366.288 979.568 356.833 979.624 347.333V173.168H1026.88V234.02H1127.3V267.981H1026.87V342.54C1026.87 354.108 1029.03 363.028 1033.33 369.301C1037.64 375.575 1044.72 378.711 1054.56 378.71C1064.16 378.71 1071.24 375.634 1075.79 369.482C1080.35 363.331 1082.63 354.596 1082.62 343.277V296.033Z" fill="white"/>
<path d="M1263.15 421.226V308.644C1263.15 294.865 1260.75 285.452 1255.94 280.405C1251.15 275.371 1243.21 272.851 1232.14 272.845C1226.65 272.753 1221.21 273.954 1216.27 276.351C1211.67 278.631 1207.63 281.91 1204.45 285.947C1201.19 290.127 1198.74 294.887 1197.25 299.976C1195.61 305.547 1194.81 311.329 1194.85 317.135V421.229H1146.85V173.181H1194.85V263.245C1196.77 259.027 1199.46 255.207 1202.79 251.984C1206.43 248.363 1210.6 245.315 1215.15 242.944C1220.07 240.387 1225.28 238.406 1230.66 237.04C1236.45 235.547 1242.41 234.802 1248.38 234.824C1267.09 234.824 1282.28 239.93 1293.97 250.143C1305.66 260.356 1311.5 274.566 1311.51 292.775V421.226H1263.15Z" fill="white"/>
</g>
<defs>
<clipPath id="clip0_5_126">
<rect width="2520" height="588" fill="white"/>
</clipPath>
</defs>
</svg>
